<svg width="912" height="912" viewBox="0 0 912 912" fill="none" xmlns="http://www.w3.org/2000/svg">
<path d="M480 0V119.99H384L336 23.99L0.0200195 23.98L0 695.99L96 791.99V911.99H432V887.99L480 839.99H696V743.99H816V527.99L912 431.99V0.0199585L480 0ZM744 71.99V47.99H768H792H816H840V71.99V95.99V119.99V143.99H816H792V119.99V95.99H768H744V71.99ZM840 191.99V215.99V239.99V263.99H816H792H768V239.99V215.99H792H816V191.99H840ZM720 311.99V335.99V359.99V383.99H696V359.99V335.99V311.99V287.99H720V263.99H744V287.99V311.99H720ZM744 407.99V431.99H720H696V407.99H720H744ZM648 71.99V47.99V23.99H672H696V47.99V71.99V95.99H672H648V71.99ZM672 167.99H696H720V191.99V215.99V239.99H696H672V215.99V191.99H648H624V167.99H600V143.99H624H648V167.99H672ZM696 503.99V527.99V551.99H672V527.99V503.99H696ZM552 239.99V215.99V191.99V167.99H528V143.99V119.99V95.99H552V119.99H576V143.99V167.99V191.99H600V215.99V239.99H576H552ZM576 455.99V479.99V503.99V527.99H552V551.99V575.99H528V551.99V527.99V503.99V479.99V455.99H552H576ZM600 431.99H624H648V455.99H624H600V431.99ZM504 23.99H528H552H576H600V47.99H624V71.99H600H576V47.99H552H528H504V23.99ZM432 191.99V167.99V143.99H456V167.99H480V191.99V215.99H456H432V191.99ZM456 431.99H480V455.99H456H432V479.99V503.99H408H384V479.99V455.99H408V431.99H432H456ZM288 527.99V503.99H312H336V479.99H360V503.99V527.99V551.99H336H312V527.99H288ZM168 647.99V623.99V599.99V575.99H192V599.99V623.99H216H240V647.99V671.99H216H192V647.99H168ZM120 551.99H96V527.99H120H144H168V551.99H144H120ZM144 575.99V599.99V623.99H120H96H72V599.99V575.99H96H120H144ZM120 335.99H96H72H48V311.99V287.99H72H96H120V311.99V335.99ZM168 407.99H192V431.99H168H144V407.99H168ZM144 383.99V359.99V335.99V311.99H168H192V335.99V359.99V383.99H168H144ZM216 599.99V575.99V551.99H240H264H288V575.99V599.99H264H240H216ZM264 215.99H240V191.99V167.99H264H288V191.99V215.99H264ZM288 263.99V287.99V311.99H264V287.99V263.99H288ZM264 383.99V359.99V335.99H288H312V359.99V383.99V407.99H288H264H240V383.99H264ZM312 431.99V455.99V479.99H288H264H240V455.99V431.99H264H288H312ZM240 287.99V311.99V335.99V359.99H216V335.99V311.99V287.99V263.99H240V287.99ZM240 503.99H264V527.99H240H216V503.99H240ZM264 647.99V623.99H288H312V647.99V671.99H288H264V647.99ZM408 287.99V311.99V335.99H384V311.99H360H336H312V287.99V263.99H336H360H384V287.99H408ZM336 431.99V407.99V383.99V359.99H360H384V383.99V407.99V431.99H360H336ZM360 191.99V167.99H384H408V191.99V215.99H384H360V239.99H336H312V215.99V191.99H336H360ZM216 95.99V71.99H240H264H288H312V95.99V119.99V143.99H336V167.99H312V143.99H288V119.99V95.99H264V119.99H240H216V95.99ZM216 191.99V215.99H192V239.99V263.99V287.99H168H144V263.99V239.99V215.99H168V191.99V167.99H192H216V191.99ZM120 95.99V71.99H144H168H192V95.99V119.99H168H144H120V95.99ZM48 47.99H72H96V71.99H72H48V47.99ZM24 215.99V191.99V167.99H48V143.99V119.99H72H96V143.99H120V167.99V191.99V215.99V239.99V263.99H96H72V239.99V215.99H96V191.99V167.99H72V191.99H48V215.99V239.99H24V215.99ZM48 599.99V623.99V647.99V671.99H24V647.99V623.99V599.99V575.99H48V599.99ZM48 551.99H24V527.99H48V551.99ZM48 359.99H72H96V383.99H120V407.99V431.99H96H72V407.99V383.99H48V359.99ZM72 695.99V671.99H96V647.99H120H144V671.99H120V695.99H96H72ZM168 887.99H144H120V863.99V839.99H144V863.99H168V887.99ZM168 767.99V791.99V815.99H144H120V791.99V767.99H144V743.99V719.99V695.99H168H192V719.99V743.99H168V767.99ZM240 791.99V815.99V839.99V863.99H216H192V839.99V815.99V791.99V767.99H216H240V791.99ZM288 863.99V887.99H264V863.99V839.99H288V863.99ZM264 767.99V743.99H240H216V719.99V695.99H240H264H288V719.99V743.99H312H336V767.99V791.99H312H288V767.99H264ZM384 839.99V863.99H360H336H312V839.99V815.99H336H360H384V839.99ZM408 767.99V791.99H384V767.99V743.99H408V767.99ZM432 623.99H408H384H360H336V599.99H360H384H408H432V623.99ZM504 575.99V599.99H480V575.99H456H432H408H384V551.99V527.99H408H432V551.99H456H480H504V575.99ZM504 503.99V527.99H480H456V503.99V479.99H480H504V503.99ZM504 215.99V191.99H528V215.99V239.99H504V215.99ZM576 671.99V695.99H552V719.99V743.99H576V767.99V791.99H552H528V767.99V743.99V719.99V695.99V671.99V647.99H552H576V671.99ZM576 575.99V551.99H600V527.99V503.99V479.99H624H648V503.99V527.99V551.99H624V575.99V599.99H600H576V575.99ZM648 791.99V815.99H624H600V791.99V767.99H624H648V791.99ZM696 671.99V695.99H672H648V719.99V743.99H624H600V719.99V695.99V671.99H624V647.99H648H672H696V671.99ZM672 623.99H648V599.99V575.99H672H696H720V551.99H744V575.99V599.99H720V623.99H696H672ZM768 647.99V671.99V695.99H744H720V671.99V647.99H744V623.99H768V647.99ZM792 335.99V359.99V383.99H768H744V359.99V335.99H768V311.99V287.99H792H816V311.99V335.99H792ZM864 383.99V407.99H840H816V383.99V359.99H840H864V383.99ZM888 263.99V287.99V311.99V335.99H864V311.99V287.99V263.99V239.99H888V263.99ZM888 95.99V119.99V143.99V167.99H864V143.99V119.99V95.99V71.99H888V95.99Z" fill="#233845"/>
<path d="M696 23.9902V47.9902V71.9902V95.9902H672H648V71.9902V47.9902V23.9902H600V47.9902H624V71.9902H600H576V47.9902H552H528H504V143.99H456V167.99H480V191.99V215.99H456H432V191.99V167.99V143.99H336V167.99H312V143.99H288V119.99V95.9902H264V119.99H240H216V95.9902V71.9902H240H264H288H312V47.9902H96V71.9902H72H48V47.9902H24V167.99H48V143.99V119.99H72H96V143.99H120V167.99V191.99V215.99V239.99V263.99H96H72V239.99V215.99H96V191.99V167.99H72V191.99H48V215.99V239.99H24V527.99H48V551.99H24V575.99H48V599.99V623.99V647.99V671.99H24V695.99H72V671.99H96V647.99H120H144V671.99H120V695.99V767.99H144V743.99V719.99V695.99H168H192V719.99V743.99H168V767.99V791.99V815.99H144H120V839.99H144V863.99H168V887.99H264V863.99V839.99H288V863.99V887.99H408V791.99H384V767.99V743.99H408V767.99V791.99H504V815.99H600V791.99V767.99H624H648V791.99V815.99H672L672.3 719.99H792V431.99H888V335.99H864V311.99V287.99V263.99V239.99H888V167.99H864V143.99V119.99V95.9902V71.9902H888V23.9902H696ZM744 71.9902V47.9902H768H792H816H840V71.9902V95.9902V119.99V143.99H816H792V119.99V95.9902H768H744V71.9902ZM840 191.99V215.99V239.99V263.99H816H792H768V239.99V215.99H792H816V191.99H840ZM720 311.99V335.99V359.99V383.99H696V359.99V335.99V311.99V287.99H720V263.99H744V287.99V311.99H720ZM744 407.99V431.99H720H696V407.99H720H744ZM600 143.99H624H648V167.99H672H696H720V191.99V215.99V239.99H696H672V215.99V191.99H648H624V167.99H600V143.99ZM696 503.99V527.99V551.99H672V527.99V503.99H696ZM648 431.99V455.99H624H600V431.99H624H648ZM528 143.99V119.99V95.9902H552V119.99H576V143.99V167.99V191.99H600V215.99V239.99H576H552V215.99V191.99V167.99H528V143.99ZM576 455.99V479.99V503.99V527.99H552V551.99V575.99H528V551.99V527.99V503.99V479.99V455.99H552H576ZM456 431.99H480V455.99H456H432V479.99V503.99H408H384V479.99V455.99H408V431.99H432H456ZM288 527.99V503.99H312H336V479.99H360V503.99V527.99V551.99H336H312V527.99H288ZM264 503.99V527.99H240H216V503.99H240H264ZM240 479.99V455.99V431.99H264H288H312V455.99V479.99H288H264H240ZM240 551.99H264H288V575.99V599.99H264H240H216V575.99V551.99H240ZM264 647.99V623.99H288H312V647.99V671.99H288H264V647.99ZM336 431.99V407.99V383.99V359.99H360H384V383.99V407.99V431.99H360H336ZM312 215.99V191.99H336H360V167.99H384H408V191.99V215.99H384H360V239.99H336H312V215.99ZM312 287.99V263.99H336H360H384V287.99H408V311.99V335.99H384V311.99H360H336H312V287.99ZM312 335.99V359.99V383.99V407.99H288H264H240V383.99H264V359.99V335.99H288H312ZM264 311.99V287.99V263.99H288V287.99V311.99H264ZM240 191.99V167.99H264H288V191.99V215.99H264H240V191.99ZM240 263.99V287.99V311.99V335.99V359.99H216V335.99V311.99V287.99V263.99H240ZM216 191.99V215.99H192V239.99V263.99V287.99H168H144V263.99V239.99V215.99H168V191.99V167.99H192H216V191.99ZM168 383.99H144V359.99V335.99V311.99H168H192V335.99V359.99V383.99H168ZM192 407.99V431.99H168H144V407.99H168H192ZM120 95.9902V71.9902H144H168H192V95.9902V119.99H168H144H120V95.9902ZM48 311.99V287.99H72H96H120V311.99V335.99H96H72H48V311.99ZM48 383.99V359.99H72H96V383.99H120V407.99V431.99H96H72V407.99V383.99H48ZM144 599.99V623.99H120H96H72V599.99V575.99H96H120H144V599.99ZM144 551.99H120H96V527.99H120H144H168V551.99H144ZM168 647.99V623.99V599.99V575.99H192V599.99V623.99H216H240V647.99V671.99H216H192V647.99H168ZM240 791.99V815.99V839.99V863.99H216H192V839.99V815.99V791.99V767.99H216H240V791.99ZM264 767.99V743.99H240H216V719.99V695.99H240H264H288V719.99V743.99H312H336V767.99V791.99H312H288V767.99H264ZM384 839.99V863.99H360H336H312V839.99V815.99H336H360H384V839.99ZM432 623.99H408H384H360H336V599.99H360H384H408H432V623.99ZM504 575.99V599.99H480V575.99H456H432H408H384V551.99V527.99H408H432V551.99H456H480H504V575.99ZM504 503.99V527.99H480H456V503.99V479.99H480H504V503.99ZM504 215.99V191.99H528V215.99V239.99H504V215.99ZM576 671.99V695.99H552V719.99V743.99H576V767.99V791.99H552H528V767.99V743.99V719.99V695.99V671.99V647.99H552H576V671.99ZM576 599.99V575.99V551.99H600V527.99V503.99V479.99H624H648V503.99V527.99V551.99H624V575.99V599.99H600H576ZM696 671.99V695.99H672H648V719.99V743.99H624H600V719.99V695.99V671.99H624V647.99H648H672H696V671.99ZM672 623.99H648V599.99V575.99H672H696H720V551.99H744V575.99V599.99H720V623.99H696H672ZM768 647.99V671.99V695.99H744H720V671.99V647.99H744V623.99H768V647.99ZM792 359.99V383.99H768H744V359.99V335.99H768V311.99V287.99H792H816V311.99V335.99H792V359.99ZM864 383.99V407.99H840H816V383.99V359.99H840H864V383.99Z" fill="#20223B"/>
<path opacity="0.59" d="M581 115.99H556V91.9902H524V172.99H547V244.99H605V187.99H581V115.99ZM600 191.99V215.99V239.99H576H552V215.99V191.99V167.99H528V143.99V119.99V95.9902H552V119.99H576V143.99V167.99V191.99H600Z" fill="#87007E"/>
<path opacity="0.59" d="M569 76.9902H629V42.9902H604V23.9902H600V47.9902H624V71.9902H600H576V47.9902H552H528H504V52.9902H569V76.9902Z" fill="#87007E"/>
<path opacity="0.59" d="M672 126.99H701V23.9902H696V47.9902V71.9902V95.9902H672H648V71.9902V47.9902V23.9902H643V101.99H662L672 126.99Z" fill="#87007E"/>
<path opacity="0.59" d="M696 246.99V287.99H720V263.99H744V287.99V311.99H720V335.99V359.99V383.99H696V389.29H725V314.99H750V265.99L724 242.99V162.99C724 162.99 671.77 162.99 670 162.99C672 162.99 652 136.99 652 136.99H595V171.99L612.5 171.49L618 179.99V198.99H624V246.99H696ZM600 167.99V143.99H624H648V167.99H672H696H720V191.99V215.99V239.99H696H672V215.99V191.99H648H624V167.99H600Z" fill="#87007E"/>
<path opacity="0.59" d="M723 34.9902H716V119.99H723V34.9902Z" fill="#87007E"/>
<path opacity="0.59" d="M843 23.9902H738V30.9902H843V23.9902Z" fill="#87007E"/>
<path opacity="0.59" d="M843 185.99H811L796 210.99L763 211.99V268.99H843V185.99ZM840 215.99V239.99V263.99H816H792H768V239.99V215.99H792H816V191.99H840V215.99Z" fill="#87007E"/>
<path opacity="0.59" d="M781 167.99L800 150.99H843V42.9902H738V157.99L749 167.99H781ZM744 71.9902V47.9902H768H792H816H840V71.9902V95.9902V119.99V143.99H816H792V119.99V95.9902H768H744V71.9902Z" fill="#87007E"/>
<path opacity="0.59" d="M888 23.9902H859V47.9902H888V23.9902Z" fill="#87007E"/>
<path opacity="0.59" d="M859 172.99H888V167.99H864V143.99V119.99V95.9902V71.9902H888V65.9902H859V172.99Z" fill="#87007E"/>
<path opacity="0.59" d="M859 340.99H888V335.99H864V311.99V287.99V263.99V239.99H888V215.99H859V340.99Z" fill="#87007E"/>
<path opacity="0.59" d="M813 411.99H876V354.99H813V411.99ZM816 383.99V359.99H840H864V383.99V407.99H840H816V383.99Z" fill="#87007E"/>
<path opacity="0.59" d="M763 331.99C763 331.99 739.73 331.99 739 331.99V388.99H797V340.99H843V282.99H763V331.99ZM768 311.99V287.99H792H816V311.99V335.99H792V359.99V383.99H768H744V359.99V335.99H768V311.99Z" fill="#87007E"/>
<path opacity="0.59" d="M696 407.99H720H744V431.99H751.23V403.99H696V407.99Z" fill="#87007E"/>
<path opacity="0.59" d="M798 403.99H768V431.99H798V403.99Z" fill="#87007E"/>
<path opacity="0.59" d="M528 191.99H504V215.99H528V191.99Z" fill="#87007E"/>
<path opacity="0.41" d="M96 47.9902V71.9902H72H48V47.9902C45.45 47.9902 44.05 47.9902 44 47.9902L44.0599 101.58H100.18V55.0702L312 54.7902V47.9902C312 47.9902 173.94 47.9902 96 47.9902Z" fill="#0000F7"/>
<path opacity="0.41" d="M30 85.9902H24V149.99H30V85.9902Z" fill="#0000F7"/>
<path opacity="0.41" d="M30 277.99H24V352.99H30V277.99Z" fill="#0000F7"/>
<path opacity="0.41" d="M30 400.76V386.34V367.99H24V433.99H55V412.99L42 400.99L30 400.76Z" fill="#0000F7"/>
<path opacity="0.41" d="M199 69.9902H117V122.99H199V69.9902ZM192 95.9902V119.99H168H144H120V95.9902V71.9902H144H168H192V95.9902Z" fill="#0000F7"/>
<path opacity="0.41" d="M196.922 138.13C196.922 138.13 164.232 138.23 163.992 137.99L164.432 193.09L140.992 212.99V292.99L195.122 293.33L195.992 218.27L219.992 217.99V164.99L197.492 165.11L196.922 138.13ZM216.002 191.99V215.99H192.002V239.99V263.99V287.99H168.002H144.002V263.99V239.99V215.99H168.002V191.99V167.99H192.002H216.002V191.99Z" fill="#0000F7"/>
<path opacity="0.41" d="M212.001 69.9902C212.001 69.9902 213.001 149.99 212.001 150.99C211.771 151.22 267.001 151.17 267.001 151.17V98.9902H284.131L284.811 151.99H312.001V143.99H288.001V119.99V95.9902H264.001V119.99H240.001H216.001V95.9902V71.9902H240.001H264.001H288.001H312.001V69.9902C312.001 69.9902 212.421 70.4102 212.001 69.9902Z" fill="#0000F7"/>
<path opacity="0.41" d="M144 137.99H99V116.99H44V163.99H24V167.99H48V143.99V119.99H72H96V143.99H120V167.99V191.99V215.99V239.99V263.99H96H72V239.99V215.99H96V191.99V167.99H72V191.99H48V215.99V239.99H24V243.99H52V224.99H69V268.99H124V195.99L144 178.99V137.99Z" fill="#0000F7"/>
<path opacity="0.41" d="M59 261.99H24V267.99H59V261.99Z" fill="#0000F7"/>
<path opacity="0.41" d="M45.0009 339.99H124.001V283.99H45.0009C44.3309 283.99 45.0009 339.99 45.0009 339.99ZM48.0009 311.99V287.99H72.0009H96.0009H120.001V311.99V335.99H96.0009H72.0009H48.0009V311.99Z" fill="#0000F7"/>
<path opacity="0.41" d="M140 387.99H196V308.99H140V387.99ZM144 359.99V335.99V311.99H168H192V335.99V359.99V383.99H168H144V359.99Z" fill="#0000F7"/>
<path opacity="0.41" d="M141 433.99C141.45 434.44 194 433.99 194 433.99V403.99H141V433.99ZM144 407.99H168H192V431.99H168H144V407.99Z" fill="#0000F7"/>
<path opacity="0.41" d="M99 356.99H45V387.99H57L68 398.99V433.99H123V379.99H99V356.99ZM120 383.99V407.99V431.99H96H72V407.99V383.99H48V359.99H72H96V383.99H120Z" fill="#0000F7"/>
<path opacity="0.41" d="M235.997 164.99C235.997 164.99 236.997 216.99 235.997 217.99C234.997 218.99 291.997 217.99 291.997 217.99V164.99C291.997 164.99 236.417 165.41 235.997 164.99ZM287.997 191.99V215.99H263.997H239.997V191.99V167.99H263.997H287.997V191.99Z" fill="#0000F7"/>
<path opacity="0.47" d="M315 330.99H244V237.99H215V412.99H315V330.99ZM216 335.99V311.99V287.99V263.99H240V287.99V311.99V335.99V359.99H216V335.99ZM312 359.99V383.99V407.99H288H264H240V383.99H264V359.99V335.99H288H312V359.99Z" fill="#B0AE00"/>
<path opacity="0.47" d="M316.997 475.991V426.991H214.997C214.177 426.171 214.997 483.991 214.997 483.991H311.997L316.997 475.991ZM263.997 479.991H239.997V455.991V431.991H263.997H287.997H311.997V455.991V479.991H287.997H263.997Z" fill="#B0AE00"/>
<path opacity="0.47" d="M216 503.99H240H264V527.99H269V499.99H216V503.99Z" fill="#B0AE00"/>
<path opacity="0.47" d="M291.997 315.99V237.99H259.997C259.997 237.99 259.687 316.3 259.997 315.99H291.997ZM263.997 287.99V263.99H287.997V287.99V311.99H263.997V287.99Z" fill="#B0AE00"/>
<path opacity="0.47" d="M307.994 187.99V244.99H363.994V221.99H413.994V161.99H356.994V187.99C356.994 187.99 307.634 188.35 307.994 187.99ZM359.994 191.99V167.99H383.994H407.994V191.99V215.99H383.994H359.994V239.99H335.994H311.994V215.99V191.99H335.994H359.994Z" fill="#B0AE00"/>
<path opacity="0.47" d="M485 143.99H456V167.99H480V191.99V215.99H456H432V191.99V167.99V143.99H429V218.99H485V143.99Z" fill="#B0AE00"/>
<path opacity="0.47" d="M453 239.99H385V259.99L307 258.99V314.99H326L344 338.99H415L414 244.99H453V239.99ZM408 311.99V335.99H384V311.99H360H336H312V287.99V263.99H336H360H384V287.99H408V311.99Z" fill="#B0AE00"/>
<path opacity="0.47" d="M437 507.99V460.99H484V427.99H415V355.99H408V419.99H391V355.99H333V455.99H377V507.99H437ZM408 455.99V431.99H432H456H480V455.99H456H432V479.99V503.99H408H384V479.99V455.99H408ZM360 431.99H336V407.99V383.99V359.99H360H384V383.99V407.99V431.99H360Z" fill="#B0AE00"/>
<path opacity="0.47" d="M309 580.99H328L364 558.99V475.99H331V491.99L323 499.99H285C285 501.09 285 528.99 285 528.99H309V555.99V580.99ZM288 527.99V503.99H312H336V479.99H360V503.99V527.99V551.99H336H312V527.99H288Z" fill="#B0AE00"/>
<path opacity="0.47" d="M435.998 522.99C435.998 522.99 377.298 523.69 377.998 522.99V580.99H474.998V604.99H507.998V547.99H435.998V522.99ZM455.998 551.99H479.998H503.998V575.99V599.99H479.998V575.99H455.998H431.998H407.998H383.998V551.99V527.99H407.998H431.998V551.99H455.998Z" fill="#B0AE00"/>
<path opacity="0.47" d="M451 532.99H508V474.99C508 474.99 450.84 474.99 451 474.99V532.99ZM456 503.99V479.99H480H504V503.99V527.99H480H456V503.99Z" fill="#B0AE00"/>
<path opacity="0.47" d="M500 143.99H494V199.99H500V143.99Z" fill="#B0AE00"/>
<path opacity="0.47" d="M319 625.99H440V596.99H319V625.99ZM336 599.99H360H384H408H432V623.99H408H384H360H336V599.99Z" fill="#B0AE00"/>
<path d="M312 143.99V145.25L312.97 143.99H312Z" fill="#B0AE00"/>
<path opacity="0.74" d="M52 525.99H24C24 525.99 24 526.73 24 527.99H48V551.99H24C24 554.83 24 556.78 24 556.99H52V525.99Z" fill="#008696"/>
<path opacity="0.74" d="M52 570.99H24C24 570.99 24 572.83 24 575.99H48V599.99V623.99V647.99V671.99H24C24 674.45 24 675.89 24 675.99H52V570.99Z" fill="#008696"/>
<path opacity="0.74" d="M245 617.99C245 617.99 214.6 617.99 199 617.99V596.99V570.99H162C162 570.99 162 583.62 162 596.99C162 611.81 162 627.55 162 627.99C162 641.15 162 653.6 162 653.99H190V676.99H245V617.99ZM240 647.99V671.99H216H192V647.99H168V623.99V599.99V575.99H192V599.99V623.99H216H240V647.99Z" fill="#008696"/>
<path opacity="0.74" d="M258 676.99H319V617.99H258V676.99ZM264 647.99V623.99H288H312V647.99V671.99H288H264V647.99Z" fill="#008696"/>
<path opacity="0.74" d="M292 527.99H247V535.92L292 535.99V527.99Z" fill="#008696"/>
<path opacity="0.74" d="M309 528.99H302.07L302 580.99H309V528.99Z" fill="#008696"/>
<path opacity="0.74" d="M211 604.99H293V546.99H211V604.99ZM216 575.99V551.99H240H264H288V575.99V599.99H264H240H216V575.99Z" fill="#008696"/>
<path opacity="0.74" d="M96 671.99V647.99H120H144V671.99H120V695.99V720.99H126V675.99H147V642.99H91L66 667.99V690.99H37V695.99H72V671.99H96Z" fill="#008696"/>
<path opacity="0.74" d="M163 670.99V690.99H139V744.99H120V767.99H144V743.99V719.99V695.99H168H192V719.99V743.99H168V767.99V791.99V815.99H144H120V820.99H172V748.99H200V690.99H179V670.99H163Z" fill="#008696"/>
<path opacity="0.74" d="M176.999 839.99H143.999V863.99H167.999V887.99H143.999H119.999L119.859 888.23L230.169 887.92L229.999 880.83H176.999V839.99Z" fill="#008696"/>
<path opacity="0.74" d="M186 763.99V868.99H247V843.99L259 859.99V880.83H243V887.99H264V863.99V839.99H288V863.99V887.99H294V817.99L241 763.99C241 763.99 186.34 764.34 186 763.99ZM240 791.99V815.99V839.99V863.99H216H192V839.99V815.99V791.99V767.99H216H240V791.99Z" fill="#008696"/>
<path opacity="0.74" d="M358 881.83H307V887.99H358V881.83Z" fill="#008696"/>
<path opacity="0.74" d="M402.42 881.83H371V887.99H408V887.41V846.41H402.42V881.83Z" fill="#008696"/>
<path opacity="0.74" d="M293 714.99V690.99H212V748.99H241L290 798.99H359V723.99H409V714.99H293ZM336 767.99V791.99H312H288V767.99H264V743.99H240H216V719.99V695.99H240H264H288V719.99V743.99H312H336V767.99Z" fill="#008696"/>
<path opacity="0.74" d="M389 810.99C389 810.99 308 811.23 308 809.99V867.99H389V810.99ZM384 839.99V863.99H360H336H312V839.99V815.99H336H360H384V839.99Z" fill="#008696"/>
<path opacity="0.74" d="M379 794.99H401.84V834.41H408V794.99V793.41C408 793.01 408 792.53 408 791.99H384V767.99V743.99H408C408 741.74 408 740.29 408 739.99H379V794.99Z" fill="#008696"/>
<path opacity="0.74" d="M168 527.99V551.99H144H120H96V527.99H67C67 527.99 67 556.15 67 556.99H193V546.89V534.99L226 534.92V527.99H168Z" fill="#008696"/>
<path opacity="0.74" d="M67 627.99H149V570.99H67C67 570.99 67 627.15 67 627.99ZM72 599.99V575.99H96H120H144V599.99V623.99H120H96H72V599.99Z" fill="#008696"/>
<path opacity="0.63" d="M522 580.991H558V532.991H583V448.991H549V428.381H508V460.991H522V580.991ZM528 551.991V527.991V503.991V479.991V455.991H552H576V479.991V503.991V527.991H552V551.991V575.991H528V551.991Z" fill="#0077C9"/>
<path opacity="0.63" d="M593.004 458.99H654.004V427.99H574.594V434.99H593.004V458.99ZM600.004 431.99H624.004H648.004V455.99H624.004H600.004V431.99Z" fill="#0077C9"/>
<path opacity="0.63" d="M711 569.99H654V475.99H595C595.81 476.8 595 546.99 595 546.99H571V605.99H624L644 627.99H726V604.99H748V545.99H711V569.99ZM624 551.99V575.99V599.99H600H576V575.99V551.99H600V527.99V503.99V479.99H624H648V503.99V527.99V551.99H624ZM720 551.99H744V575.99V599.99H720V623.99H696H672H648V599.99V575.99H672H696H720V551.99Z" fill="#0077C9"/>
<path opacity="0.63" d="M703 533.99H734V527.99H696V551.99H672V527.99V503.99H696V431.99H668V557.99H703V533.99Z" fill="#0077C9"/>
<path opacity="0.63" d="M773 699.99V619.99H740V642.99H715C716.54 642.99 715 699.99 715 699.99H773ZM720 671.99V647.99H744V623.99H768V647.99V671.99V695.99H744H720V671.99Z" fill="#0077C9"/>
<path opacity="0.63" d="M609 629.99L599 622.99H576L552 598.99H525C525 598.55 524 625.99 524 625.99H501V650.99V703.99H509V662.99H523V796.99H581V649.99H609V629.99ZM576 671.99V695.99H552V719.99V743.99H576V767.99V791.99H552H528V767.99V743.99V719.99V695.99V671.99V647.99H552H576V671.99Z" fill="#0077C9"/>
<path opacity="0.63" d="M509 713.99C508.54 713.53 501 713.99 501 713.99V763.99H509V713.99Z" fill="#0077C9"/>
<path opacity="0.63" d="M509.002 791.99H503.852V815.99H575.002V810.07H509.002V791.99Z" fill="#0077C9"/>
<path opacity="0.63" d="M620 665.99L595 666.99V747.99H652V700.99H701V642.99H620V665.99ZM624 647.99H648H672H696V671.99V695.99H672H648V719.99V743.99H624H600V719.99V695.99V671.99H624V647.99Z" fill="#0077C9"/>
<path opacity="0.63" d="M595 761.99V815.99H652V761.99H595ZM648 791.99V815.99H624H600V791.99V767.99H624H648V791.99Z" fill="#0077C9"/>
<path opacity="0.63" d="M662 792.99H672V719.99H732V711.99H662V792.99Z" fill="#0077C9"/>
<path opacity="0.63" d="M785 711.99H754V719.99H792V619.99H784.87L785 711.99Z" fill="#0077C9"/>
<path opacity="0.63" d="M768 525.99V595.99L778 605.99H792V525.99H768Z" fill="#0077C9"/>
<path opacity="0.78" d="M24 431.99H215V483.99H52V517.99H24V431.99Z" fill="#00472D"/>
<path opacity="0.78" d="M32.1172 444.33H203.177V473.07H41.3171V509.65H32.1172V444.33Z" fill="#00472D"/>
<path opacity="0.78" d="M216 503.99H67V527.99H216V503.99Z" fill="#00472D"/>
<path opacity="0.78" d="M203.466 510.18H78.4062V521.73H203.466V510.18Z" fill="#00472D"/>
<path opacity="0.78" d="M425 338.99V252.99H453V244.99H414L415 338.99H425Z" fill="#00472D"/>
<path opacity="0.78" d="M534 244.99H474V252.99H534V244.99Z" fill="#00472D"/>
<path opacity="0.78" d="M605 244.99H547V252.99H605V244.99Z" fill="#00472D"/>
<path opacity="0.78" d="M695.999 389.29H653.059V427.99H415.079L415.039 355.99H443.039L442.999 269.74H623.999V244.99H695.999V389.29Z" fill="#00472D"/>
<path opacity="0.78" d="M679.456 365.29H625.786V402.65L442.436 403.9L442.406 367.36L474.486 367.08L474.456 293.74H642.786V270.82H679.456V365.29Z" fill="#00472D"/>
<path opacity="0.78" d="M696 403.99H668V431.99H696V403.99Z" fill="#00472D"/>
<path opacity="0.78" d="M792 431.99H768V525.99H792V431.99Z" fill="#00472D"/>
<path opacity="0.78" d="M786.341 450.24H774.711V510.43H786.341V450.24Z" fill="#00472D"/>
<path opacity="0.78" d="M751 431.99H696V527.99H751V431.99Z" fill="#00472D"/>
<path opacity="0.78" d="M741.17 449.141H705.82V510.841H741.17V449.141Z" fill="#00472D"/>
<path opacity="0.78" d="M319 625.99V695.99H428V763.99H501V625.99C501 625.99 319.46 625.53 319 625.99Z" fill="#00472D"/>
<path opacity="0.78" d="M332.57 639.01V681.02H439.44V750.781H489.84V639.01C489.84 639.01 332.9 638.67 332.57 639.01Z" fill="#00472D"/>
<path opacity="0.78" d="M409 714.99V723.99H416V714.99C416 714.99 409.14 715.13 409 714.99Z" fill="#00472D"/>
<path opacity="0.78" d="M408 739.99V791.99H502V784.99H416V739.99C416 739.99 409.78 739.99 408 739.99Z" fill="#00472D"/>
</svg>
