<svg width="912" height="912" fill="none" xmlns="http://www.w3.org/2000/svg"><g clip-path="url(#a)"><path d="M480 0v119.99h-96l-48-96-336-.01v672.01l96 96v121h336v-25l48-48h216v-96h120v-216l96-96V0H480zm264 71.99v-24h96v96h-48v-48h-48v-24zm96 120v72h-72v-48h48v-24h24zm-120 120v72h-24v-96h24v-24h24v48h-24zm24 96v24h-48v-24h48zm-96-336v-48h48v72h-48v-24zm24 96h48v72h-48v-48h-48v-24h-24v-24h48v24h24zm24 336v48h-24v-48h24zm-144-264v-72h-24v-72h24v24h24v72h24v48h-48zm24 216v72h-24v48h-24v-120h48zm24-24h48v24h-48v-24zm-96-408h96v24h24v24h-48v-24h-72v-24zm-72 168v-48h24v24h24v48h-48v-24zm24 240h24v24h-48v48h-48v-48h24v-24h48zm-168 96v-24h48v-24h24v72h-48v-24h-24zm-120 120v-72h24v48h48v48h-48v-24h-24zm-48-96H96v-24h72v24h-48zm24 24v48H72v-48h72zm-24-240H48v-48h72v48zm48 72h24v24h-48v-24h24zm-24-24v-72h48v72h-48zm72 216v-48h72v48h-72zm48-384h-24v-48h48v48h-24zm24 48v48h-24v-48h24zm-24 120v-48h48v72h-72v-24h24zm48 48v48h-72v-48h72zm-72-144v72h-24v-96h24v24zm0 216h24v24h-48v-24h24zm24 144v-24h48v48h-48v-24zm144-360v48h-24v-24h-72v-48h72v24h24zm-72 144v-72h48v72h-48zm24-240v-24h48v48h-48v24h-48v-48h48zm-144-96v-24h96v72h24v24h-24v-24h-24v-48h-24v24h-48v-24zm0 96v24h-24v72h-48v-72h24v-48h48v24zm-96-96v-24h72v48h-72v-24zm-72-48h48v24H48v-24zm-24 168v-48h24v-48h48v24h24v120H72v-48h24v-48H72v24H48v48H24v-24zm24 384v72H24v-96h24v24zm0-48H24v-24h24v24zm0-192h48v24h24v48H72v-48H48v-24zm24 336v-24h24v-24h48v24h-24v24H72zm96 192h-48v-48h24v24h24v24zm0-120v48h-48v-48h24v-72h48v48h-24v24zm72 24v72h-48v-96h48v24zm48 72v24h-24v-48h24v24zm-24-96v-24h-48v-48h72v48h48v48h-48v-24h-24zm120 72v24h-72v-48h72v24zm24-72v24h-24v-48h24v24zm24-144h-96v-24h96v24zm72-48v24h-24v-24h-96v-48h48v24h72v24zm0-72v24h-48v-48h48v24zm0-288v-24h24v48h-24v-24zm72 456v24h-24v48h24v48h-48v-144h48v24zm0-96v-24h24v-72h48v72h-24v48h-48v-24zm72 216v24h-48v-48h48v24zm48-120v24h-48v48h-48v-72h24v-24h72v24zm-24-48h-24v-48h72v-24h24v48h-24v24h-48zm96 24v48h-48v-48h24v-24h24v24zm24-312v48h-48v-48h24v-48h48v48h-24zm72 48v24h-48v-48h48v24zm24-120v72h-24v-96h24v24zm0-168v72h-24v-96h24v24z" fill="#6D6D6D"/><path d="M696 23.99v72h-48v-72h-48v24h24v24h-48v-24h-72v96h-48v24h24v48h-48v-72h-96v24h-24v-24h-24v-48h-24v24h-48v-48h96v-24H96v24H48v-24H24v120h24v-48h48v24h24v120H72v-48h24v-48H72v24H48v48H24v288h24v24H24v24h24v96H24v24h48v-24h24v-24h48v24h-24v96h24v-72h48v48h-24v72h-48v24h24v24h24v24h96v-48h24v48h120v-96h-24v-48h24v48h96v24h96v-48h48v48h24l.3-96H792v-288h96v-96h-24v-96h24v-72h-24v-96h24v-48H696zm48 48v-24h96v96h-48v-48h-48v-24zm96 120v72h-72v-48h48v-24h24zm-120 120v72h-24v-96h24v-24h24v48h-24zm24 96v24h-48v-24h48zm-144-264h48v24h72v72h-48v-48h-48v-24h-24v-24zm96 360v48h-24v-48h24zm-48-72v24h-48v-24h48zm-120-288v-48h24v24h24v72h24v48h-48v-72h-24v-24zm48 312v72h-24v48h-24v-120h48zm-120-24h24v24h-48v48h-48v-48h24v-24h48zm-168 96v-24h48v-24h24v72h-48v-24h-24zm-24-24v24h-48v-24h48zm-24-24v-48h72v48h-72zm0 72h48v48h-72v-48h24zm24 96v-24h48v48h-48v-24zm72-216v-72h48v72h-48zm-24-216v-24h48v-24h48v48h-48v24h-48v-24zm0 72v-24h72v24h24v48h-24v-24h-72v-24zm0 48v72h-72v-24h24v-48h48zm-48-24v-48h24v48h-24zm-24-120v-24h48v48h-48v-24zm0 72v96h-24v-96h24zm-24-72v24h-24v72h-48v-72h24v-48h48v24zm-48 192h-24v-72h48v72h-24zm24 24v24h-48v-24h48zm-72-312v-24h72v48h-72v-24zm-72 216v-24h72v48H48v-24zm0 72v-24h48v24h24v48H72v-48H48zm96 216v24H72v-48h72v24zm0-48H96v-24h72v24h-24zm24 96v-72h24v48h48v48h-48v-24h-24zm72 144v72h-48v-96h48v24zm24-24v-24h-48v-48h72v48h48v48h-48v-24h-24zm120 72v24h-72v-48h72v24zm48-216h-96v-24h96v24zm72-48v24h-24v-24h-96v-48h48v24h72v24zm0-72v24h-48v-48h48v24zm0-288v-24h24v48h-24v-24zm72 456v24h-24v48h24v48h-48v-144h48v24zm0-72v-48h24v-72h48v72h-24v48h-48zm120 72v24h-48v48h-48v-72h24v-24h72v24zm-24-48h-24v-48h72v-24h24v48h-24v24h-48zm96 24v48h-48v-48h24v-24h24v24zm24-288v24h-48v-48h24v-48h48v48h-24v24zm72 24v24h-48v-48h48v24z" fill="#fff"/><path d="M581 115.99h-25v-24h-32v81h23v72h58v-57h-24v-72zm19 76v48h-48v-72h-24v-72h24v24h24v72h24zM569 76.99h60v-34h-25v-19h-4v24h24v24h-48v-24h-72v5h65v24zM672 126.99h29v-103h-5v72h-48v-72h-5v78h19l10 25z" fill="#C59F9F"/><path d="M696 246.99v41h24v-24h24v48h-24v72h-24v5.3h29v-74.3h25v-49l-26-23v-80h-54c2 0-18-26-18-26h-57v35l17.5-.5 5.5 8.5v19h6v48h72zm-96-79v-24h48v24h72v72h-48v-48h-48v-24h-24zM723 34.99h-7v85h7v-85zM843 23.99H738v7h105v-7zM843 185.99h-32l-15 25-33 1v57h80v-83zm-3 30v48h-72v-48h48v-24h24v24zM781 167.99l19-17h43v-108H738v115l11 10h32zm-37-96v-24h96v96h-48v-48h-48v-24zM888 23.99h-29v24h29v-24zM859 172.99h29v-5h-24v-96h24v-6h-29v107zM859 340.99h29v-5h-24v-96h24v-24h-29v125zM813 411.99h63v-57h-63v57zm3-28v-24h48v48h-48v-24z" fill="#C59F9F"/><path d="M763 331.99h-24v57h58v-48h46v-58h-80v49zm5-20v-24h48v48h-24v48h-48v-48h24v-24zM696 407.99h48v24h7.23v-28H696v4zM798 403.99h-30v28h30v-28zM528 191.99h-24v24h24v-24z" fill="#C59F9F"/><path d="M96 47.99v24H48v-24h-4l.06 53.59h56.12V55.07L312 54.79v-6.8H96zM30 85.99h-6v64h6v-64zM30 277.99h-6v75h6v-75zM30 400.76v-32.77h-6v66h31v-21l-13-12-12-.23z" fill="#C6A8CA"/><path d="M199 69.99h-82v53h82v-53zm-7 26v24h-72v-48h72v24zM196.922 138.13s-32.69.1-32.93-.14l.44 55.1-23.44 19.9v80l54.13.34.87-75.06 24-.28v-53l-22.5.12-.57-26.98zm19.08 53.86v24h-24v72h-48v-72h24v-48h48v24zM212.001 69.99s1 80 0 81c-.23.23 55 .18 55 .18V98.99h17.13l.68 53h27.19v-8h-24v-48h-24v24h-48v-48h96v-2s-99.58.42-100 0zM144 137.99H99v-21H44v47H24v4h24v-48h48v24h24v120H72v-48h24v-48H72v24H48v48H24v4h28v-19h17v44h55v-73l20-17v-41z" fill="#C6A8CA"/><path d="M59 261.99H24v6h35v-6zM45 339.99h79.001v-56h-79c-.67 0 0 56 0 56zm3-28v-24h72.001v48h-72v-24zM140 387.99h56v-79h-56v79zm4-28v-48h48v72h-48v-24zM141 433.99c.45.45 53 0 53 0v-30h-53v30zm3-26h48v24h-48v-24zM99 356.99H45v31h12l11 11v35h55v-54H99v-23zm21 27v48H72v-48H48v-24h48v24h24zM235.997 164.99s1 52 0 53 56 0 56 0v-53s-55.58.42-56 0zm52 27v24h-48v-48h48v24z" fill="#C6A8CA"/><path opacity=".47" d="M315 330.99h-71v-93h-29v175h100v-82zm-99 5v-72h24v96h-24v-24zm96 24v48h-72v-24h24v-48h48v24zM316.997 475.989v-49h-102c-.82-.82 0 57 0 57h97l5-8zm-53 4h-24v-48h72v48h-48zM216 503.99h48v24h5v-28h-53v4z" fill="#B0AE00"/><path opacity=".47" d="M291.997 315.99v-78h-32s-.31 78.31 0 78h32zm-28-28v-24h24v48h-24v-24zM307.986 187.99v57h56v-23h50v-60h-57v26s-49.36.36-49 0zm52 4v-24h48v48h-48v24h-48v-48h48zM485 143.99h-29v24h24v48h-48v-72h-3v75h56v-75zM453 239.99h-68v20l-78-1v56h19l18 24h71l-1-94h39v-5zm-45 72v24h-24v-24h-72v-48h72v24h24v24zM437 507.99v-47h47v-33h-69v-72h-7v64h-17v-64h-58v100h44v52h60zm-29-52v-24h72v24h-48v48h-48v-48h24zm-48-24h-24v-72h48v72h-24z" fill="#B0AE00"/><path opacity=".47" d="M309 580.99h19l36-22v-83h-33v16l-8 8h-38v29h24v52zm-21-53v-24h48v-24h24v72h-48v-24h-24zM435.998 522.99s-58.7.7-58 0v58h97v24h33v-57h-72v-25zm20 29h48v48h-24v-24h-96v-48h48v24h24z" fill="#B0AE00"/><path opacity=".47" d="M451 532.99h57v-58h-57v58zm5-29v-24h48v48h-48v-24zM500 143.99h-6v56h6v-56zM319 625.99h121v-29H319v29zm17-26h96v24h-96v-24z" fill="#B0AE00"/><path d="M312 143.99v1.26l.97-1.26H312z" fill="#B0AE00"/><path d="M52 525.99H24v2h24v24H24v5h28v-31zM52 570.99H24v5h24v96H24v4h28v-105zM245 617.99h-46v-47h-37v83h28v23h55v-59zm-5 30v24h-48v-24h-24v-72h24v48h48v24zM258 676.99h61v-59h-61v59zm6-29v-24h48v48h-48v-24zM292 527.99h-45v7.93l45 .07v-8zM309 528.99h-6.93l-.07 52h7v-52z" fill="#A2BEC7"/><path d="M211 604.99h82v-58h-82v58zm5-29v-24h72v48h-72v-24zM96 671.99v-24h48v24h-24v49h6v-45h21v-33H91l-25 25v23H37v5h35v-24h24z" fill="#A2BEC7"/><path d="M163 670.99v20h-24v54h-19v23h24v-72h48v48h-24v72h-48v5h52v-72h28v-58h-21v-20h-16zM176.999 839.99h-33v24h24v24h-48l-.14.24 110.31-.31-.17-7.09h-53v-40.84z" fill="#A2BEC7"/><path d="M186 763.99v105h61v-25l12 16v20.84h-16v7.16h21v-48h24v48h6v-70l-53-54s-54.66.35-55 0zm54 28v72h-48v-96h48v24zM358 881.83h-51v6.16h51v-6.16zM402.42 881.83H371v6.16h37v-41.58h-5.58v35.42z" fill="#A2BEC7"/><path d="M293 714.99v-24h-81v58h29l49 50h69v-75h50v-9H293zm43 53v24h-48v-24h-24v-24h-48v-48h72v48h48v24zM389 810.99s-81 .24-81-1v58h81v-57zm-5 29v24h-72v-48h72v24z" fill="#A2BEC7"/><path d="M379 794.99h22.84v39.42H408v-42.42h-24v-48h24v-4h-29v55zM168 527.99v24H96v-24H67v29h126v-22l33-.07v-6.93h-58zM67 627.99h82v-57H67v57zm5-28v-24h72v48H72v-24z" fill="#A2BEC7"/><path d="M522 580.991h36v-48h25v-84h-34v-20.61h-41v32.61h14v120zm6-29v-96h48v72h-24v48h-24v-24zM593.004 458.99h61v-31h-79.41v7h18.41v24zm7-27h48v24h-48v-24z" fill="#AEA8CA"/><path d="M711 569.99h-57v-94h-59c.81.81 0 71 0 71h-24v59h53l20 22h82v-23h22v-59h-37v24zm-87-18v48h-48v-48h24v-72h48v72h-24zm96 0h24v48h-24v24h-72v-48h72v-24z" fill="#AEA8CA"/><path d="M703 533.99h31v-6h-38v24h-24v-48h24v-72h-28v126h35v-24zM773 699.99v-80h-33v23h-25c1.54 0 0 57 0 57h58zm-53-28v-24h24v-24h24v72h-48v-24zM609 629.99l-10-7h-23l-24-24h-27c0-.44-1 27-1 27h-23v78h8v-41h14v134h58v-147h28v-20zm-33 42v24h-24v48h24v48h-48v-144h48v24z" fill="#AEA8CA"/><path d="M509 713.99c-.46-.46-8 0-8 0v50h8v-50zM509.002 791.99h-5.15v24h71.15v-5.92h-66v-18.08zM620 665.99l-25 1v81h57v-47h49v-58h-81v23zm4-18h72v48h-48v48h-48v-72h24v-24zM595 761.99v54h57v-54h-57zm53 30v24h-48v-48h48v24z" fill="#AEA8CA"/><path d="M662 792.99h10v-73h60v-8h-70v81zM785 711.99h-31v8h38v-100h-7.13l.13 92zM768 525.99v70l10 10h14v-80h-24z" fill="#AEA8CA"/><path d="M24 431.99h191v52H52v34H24v-86z" fill="#7FC4A0"/><path d="M32.117 444.33h171.06v28.74H41.317v36.58h-9.2v-65.32z" fill="#9FE0BE"/><path d="M216 503.99H67v24h149v-24z" fill="#7FC4A0"/><path d="M203.466 510.18H78.406v11.55h125.06v-11.55zM425 338.99v-86h28v-8h-39l1 94h10zM534 244.99h-60v8h60v-8zM605 244.99h-58v8h58v-8z" fill="#7FC4A0"/><path d="M695.999 389.29h-42.94v38.7h-237.98l-.04-72h28l-.04-86.25h181v-24.75h72v144.3z" fill="#7FC4A0"/><path d="M679.456 365.29h-53.67v37.36l-183.35 1.25-.03-36.54 32.08-.28-.03-73.34h168.33v-22.92h36.67v94.47z" fill="#9FE0BE"/><path d="M696 403.99h-28v28h28v-28zM792 431.99h-24v94h24v-94z" fill="#7FC4A0"/><path d="M786.341 450.24h-11.63v60.19h11.63v-60.19zM751 431.99h-55v96h55v-96z" fill="#7FC4A0"/><path d="M741.17 449.141h-35.35v61.7h35.35v-61.7zM319 625.99v70h109v68h73v-138s-181.54-.46-182 0z" fill="#7FC4A0"/><path d="M332.57 639.01v42.01h106.87v69.761h50.4V639.01s-156.94-.34-157.27 0z" fill="#9FE0BE"/><path d="M409 714.99v9h7v-9s-6.86.14-7 0zM408 739.99v52h94v-7h-86v-45h-8z" fill="#7FC4A0"/></g><defs><clipPath id="a"><path fill="#fff" d="M0 0h912v911.99H0z"/></clipPath></defs></svg>